<svg xmlns="http://www.w3.org/2000/svg" viewBox="0 0 203.8 220"><style type="text/css">.st0{fill:#00C794;} .st1{fill:#3C3C3B;}</style><path class="st0" d="M120.4 218.4c13.3-1.4 26.3-5.3 38.1-11.4 11.9-6.1 22.6-14.4 31.5-24.3 1.3-1.5 1.2-3.7-0.3-4.9s-3.6-1.1-4.9 0.3c-8.3 9.3-18.4 17.1-29.5 22.8 -11.1 5.7-23.3 9.4-35.7 10.7 -0.9 0.1-1.7 0.6-2.3 1.2 -0.6 0.7-0.9 1.6-0.8 2.5 0.1 1 0.5 1.8 1.2 2.4C118.5 218.2 119.4 218.5 120.4 218.4"/><path class="st0" d="M17.5 169.3c7.3 11.2 16.6 21 27.4 28.9 10.8 7.9 23 13.7 35.9 17.1 1.9 0.5 3.8-0.7 4.3-2.5 0.4-1.9-0.7-3.7-2.5-4.1 -12.1-3.2-23.5-8.7-33.6-16.1 -10.1-7.3-18.8-16.6-25.6-27.1 -1-1.6-3.1-2-4.7-1.1C16.9 165.4 16.4 167.6 17.5 169.3"/><path class="st0" d="M6.4 73.4c-9.1 25.1-8.4 53.5 1.8 78.2 0.8 1.8 2.9 2.6 4.6 1.8 1.7-0.8 2.5-2.8 1.8-4.5C5 125.8 4.4 99.2 12.9 75.6c0.3-0.9 0.2-1.8-0.1-2.6 -0.4-0.8-1-1.5-1.9-1.8 -0.9-0.4-1.8-0.3-2.7 0.1C7.4 71.7 6.7 72.4 6.4 73.4"/><path class="st0" d="M76 6.4c-12.7 4-24.7 10.4-35.1 18.8 -10.4 8.3-19.3 18.6-26 30.1 -0.5 0.9-0.6 1.8-0.4 2.7 0.2 0.9 0.8 1.6 1.7 2.1 0.8 0.5 1.8 0.5 2.6 0.3s1.6-0.8 2.1-1.6C27.2 48 35.5 38.4 45.3 30.6c9.7-7.8 21-13.8 32.9-17.6 0.4-0.1 0.8-0.4 1.2-0.7 0.3-0.3 0.6-0.6 0.8-1 0.4-0.8 0.6-1.7 0.3-2.6s-0.9-1.6-1.7-2.1c-0.4-0.2-0.8-0.4-1.3-0.4C76.9 6.2 76.4 6.2 76 6.4"/><path class="st0" d="M203.1 167.3c0.2-0.3 0.3-0.6 0.4-0.9 0.1-0.3 0.2-0.6 0.2-0.9 0.1-0.3 0.1-0.7 0.1-1s-0.1-0.6-0.1-1c-0.1-0.3-0.2-0.6-0.3-0.9 -0.1-0.3-0.3-0.6-0.5-0.8s-0.4-0.5-0.7-0.7c-0.2-0.2-0.5-0.4-0.8-0.5 -0.3-0.2-0.6-0.3-0.9-0.4 -0.3-0.1-0.6-0.2-0.9-0.2s-0.6 0-0.9 0 -0.6 0.1-0.9 0.1c-0.3 0.1-0.6 0.2-0.9 0.3s-0.5 0.3-0.8 0.5c-0.2 0.2-0.5 0.4-0.7 0.6 -0.4 0.5-0.7 1-0.9 1.6 -0.1 0.3-0.2 0.6-0.2 0.9 0 0.3-0.1 0.6-0.1 0.9 0 0.3 0 0.6 0.1 0.9 0.1 0.3 0.2 0.6 0.3 0.9 0.1 0.3 0.3 0.6 0.5 0.8 0.2 0.3 0.4 0.5 0.6 0.7s0.5 0.4 0.7 0.6c0.3 0.2 0.5 0.3 0.8 0.4 0.3 0.1 0.6 0.2 0.9 0.3s0.6 0.1 0.9 0.1 0.6 0 1-0.1c0.3-0.1 0.6-0.2 0.9-0.3s0.6-0.3 0.9-0.5 0.5-0.4 0.7-0.6C202.7 167.8 202.9 167.6 203.1 167.3"/><path class="st0" d="M100.3 220c0.3 0 0.7 0 1 0s0.6-0.1 1-0.2c0.3-0.1 0.6-0.2 0.9-0.4 0.3-0.2 0.6-0.4 0.8-0.6 1-0.9 1.5-2.1 1.6-3.4 0-0.3 0-0.6-0.1-1 0-0.3-0.1-0.6-0.2-0.9 -0.1-0.3-0.2-0.6-0.4-0.9s-0.3-0.5-0.6-0.8c-0.2-0.2-0.4-0.4-0.7-0.6s-0.5-0.3-0.8-0.5c-0.3-0.1-0.6-0.3-0.8-0.3 -1.5-0.4-3.1 0-4.3 1 -0.2 0.2-0.5 0.4-0.7 0.7 -0.2 0.2-0.4 0.5-0.5 0.8s-0.3 0.6-0.4 0.9c-0.1 0.3-0.2 0.6-0.2 0.9s0 0.6 0 1c0 0.3 0.1 0.6 0.2 0.9 0.1 0.3 0.2 0.6 0.4 0.9s0.3 0.6 0.5 0.8C97.7 219.3 99 219.9 100.3 220"/><path class="st0" d="M95.3 0.8C94 1 92.7 1.6 92 2.7c-0.8 1-1.1 2.4-0.9 3.6 0.1 0.3 0.1 0.6 0.3 0.9 0.1 0.3 0.3 0.6 0.4 0.8 0.2 0.3 0.4 0.5 0.6 0.8 0.2 0.2 0.4 0.4 0.7 0.6 0.2 0.2 0.5 0.3 0.8 0.5 0.3 0.1 0.6 0.2 0.9 0.3 0.3 0.1 0.6 0.1 0.9 0.2 0.6 0.1 1.2 0 1.8-0.2 0.3-0.1 0.6-0.2 0.8-0.4 0.3-0.2 0.5-0.3 0.7-0.5s0.5-0.4 0.7-0.7c0.8-1 1.2-2.2 1.1-3.5 -0.1-1.3-0.7-2.5-1.7-3.3 -0.3-0.2-0.5-0.4-0.8-0.5S97.7 1.1 97.4 1c-0.3-0.1-0.6-0.1-1-0.2C96 0.7 95.6 0.7 95.3 0.8"/><path class="st0" d="M115.5 0.1c-0.3 0-0.7 0-1 0s-0.6 0.1-1 0.2c-0.3 0.1-0.6 0.3-0.9 0.4 -0.3 0.2-0.5 0.4-0.8 0.6 -0.2 0.2-0.5 0.5-0.6 0.7 -0.2 0.3-0.3 0.5-0.5 0.8 -0.1 0.3-0.2 0.6-0.3 0.9 -0.1 0.3-0.1 0.6-0.1 0.9 0 0.3 0 0.6 0.1 1 0.1 0.3 0.1 0.6 0.3 0.9 0.1 0.3 0.3 0.6 0.4 0.8 0.2 0.3 0.4 0.5 0.6 0.8 0.2 0.2 0.4 0.5 0.7 0.6 0.2 0.2 0.5 0.3 0.8 0.5 0.3 0.1 0.6 0.2 0.8 0.3 0.6 0.1 1.2 0.2 1.8 0.1 0.3 0 0.6-0.1 0.9-0.2 0.3-0.1 0.6-0.2 0.8-0.4 0.3-0.2 0.5-0.3 0.8-0.6 0.2-0.2 0.5-0.4 0.7-0.7 0.2-0.2 0.4-0.5 0.5-0.8s0.3-0.6 0.4-0.9c0.1-0.3 0.2-0.6 0.2-0.9s0-0.6 0-1c0-0.3-0.1-0.6-0.2-0.9 -0.1-0.3-0.2-0.6-0.4-0.9 -0.2-0.3-0.3-0.6-0.6-0.8 -0.2-0.2-0.4-0.5-0.7-0.7s-0.5-0.4-0.8-0.5S116.8 0 116.5 0C116.2 0.2 115.9 0.2 115.5 0.1"/><path class="st1" d="M65 78.5c-0.7 0-1.2 0.5-1.2 1.2v26.1c0 0.7 0.5 1.2 1.2 1.2h11.8c7.6 0 14.3-6.3 14.3-14.3 0-7.8-6.5-14.3-14.3-14.3H65V78.5zM65 118.8c-0.7 0-1.2 0.5-1.2 1.2v31c0 1.4-1.1 2.5-2.5 2.5h-6.8c-1.4 0-2.5-1.1-2.5-2.5V69.1c0-1.4 1.1-2.5 2.5-2.5h22.3c14.4 0 26 11.7 26 26.1 0 9.4-5.3 17.7-12.9 22.2 -2.4 1.4-3.2 2.5-2.1 4.7l14.6 30.1c0.9 1.9 0.1 3.7-2.4 3.7h-6.9c-2 0-2.9-1-3.6-2.5l-14.6-30.8c-0.4-0.7-1-1.5-2.4-1.5H65V118.8z"/><path class="st1" d="M152.6 89.4c0-7.2-5.6-12.5-13.9-12.5s-13.9 5.3-13.9 12.5 5.6 12.8 13.9 12.8S152.6 96.6 152.6 89.4M154.2 129c0-8.1-6.4-14.4-15.5-14.4 -9.2 0-15.5 6.3-15.5 14.4 0 8.1 6.3 14.1 15.5 14.1C147.7 143.1 154.2 137.1 154.2 129M163.9 89.4c0 6.8-2.7 12.7-7.2 17 -0.9 0.9-1.2 2-0.1 3 5.5 4.7 9.2 11.8 9.2 19.6 0 14.3-11.7 25.6-27 25.6 -15.5 0-27-11.3-27-25.6 0-7.8 3.6-14.8 9.2-19.6 1.1-1 0.7-2.1-0.1-3 -4.3-4.3-7.1-10.3-7.1-17 0-13.3 10.5-23.7 25.2-23.7C153.2 65.7 163.9 76.2 163.9 89.4"/></svg>